<svg height="512pt" viewBox="-75 0 512 512" width="512pt" xmlns="http://www.w3.org/2000/svg"><path d="m181.332031 12.800781c-94.996093 0-172.265625 77.289063-172.265625 172.265625 0 166.527344 158.871094 305.8125 165.632813 311.660156 1.917969 1.640626 4.265625 2.472657 6.632812 2.472657 2.371094 0 4.714844-.832031 6.636719-2.472657 6.761719-5.847656 165.632812-145.132812 165.632812-311.660156 0-94.976562-77.269531-172.265625-172.269531-172.265625zm0 0" fill="#2196f3"/><path d="m259.648438 165.886719-46.441407-23.230469c-1.152343-20.480469-9.6875-39.550781-24.320312-54.207031-4.140625-4.160157-10.945313-4.140625-15.105469.019531-14.273438 14.273438-22.742188 32.8125-24.214844 54.144531l-46.527344 23.273438c-10.921874 5.441406-17.707031 16.429687-17.707031 28.628906v8.152344c0 3.132812 1.367188 6.101562 3.777344 8.148437 2.390625 2.046875 5.546875 2.964844 8.640625 2.367188l53.480469-8.917969 8 48.066406-28.117188 28.117188c-3.390625 3.390625-4.09375 8.617187-1.746093 12.796875 2.34375 4.183594 7.207031 6.210937 11.859374 5.101562l40.105469-10.007812 40.085938 10.027344c.855469.191406 1.730469.300781 2.582031.300781 3.777344 0 7.359375-2.027344 9.28125-5.421875 2.367188-4.15625 1.664062-9.382813-1.75-12.796875l-28.117188-28.117188 8-48.066406 53.480469 8.917969c3.09375.578125 6.273438-.339844 8.640625-2.367188 2.433594-2.046875 3.796875-5.015625 3.796875-8.148437v-8.152344c0-12.199219-6.78125-23.1875-17.683593-28.628906zm0 0" fill="#fafafa"/><path d="m181.332031 512c-2.472656 0-4.96875-.875-6.976562-2.601562-7.125-6.144532-174.355469-152.746094-174.355469-328.066407 0-99.988281 81.34375-181.332031 181.332031-181.332031 99.992188 0 181.335938 81.34375 181.335938 181.332031 0 175.320313-167.234375 321.921875-174.359375 328.066407-2.003906 1.726562-4.5 2.601562-6.976563 2.601562zm0-490.667969c-88.234375 0-160 71.765625-160 160 0 145.964844 128.34375 275.757813 160 305.539063 31.636719-29.804688 160-159.746094 160-305.539063 0-88.234375-71.765625-160-160-160zm0 0"/><path d="m224 298.667969c-.851562 0-1.726562-.109375-2.582031-.320313l-40.085938-10.007812-40.085937 10.007812c-4.648438 1.195313-9.492188-.917968-11.878906-5.078125-2.347657-4.179687-1.644532-9.40625 1.746093-12.800781l28.117188-28.117188-8.019531-48.0625-53.460938 8.894532c-3.050781.492187-6.25-.363282-8.640625-2.390625-2.410156-2.003907-3.777344-4.992188-3.777344-8.125v-8.152344c0-12.199219 6.765625-23.167969 17.6875-28.628906l46.546875-23.273438c1.453125-21.332031 9.921875-39.871093 24.214844-54.144531 4.160156-4.179688 10.945312-4.179688 15.105469-.019531 14.65625 14.632812 23.167969 33.75 24.339843 54.226562l46.441407 23.210938c10.925781 5.460937 17.6875 16.429687 17.6875 28.628906v8.152344c0 3.132812-1.367188 6.121093-3.777344 8.125-2.367187 2.050781-5.523437 2.902343-8.640625 2.390625l-53.480469-8.917969-8.023437 48.066406 28.117187 28.117188c3.394531 3.390625 4.097657 8.617187 1.75 12.796875-1.941406 3.414062-5.523437 5.421875-9.300781 5.421875zm-42.667969-32c.875 0 1.730469.105469 2.582031.320312l5.3125 1.320313-4.777343-4.777344c-2.007813-2.007812-3.117188-4.714844-3.117188-7.488281-.019531 2.773437-1.128906 5.480469-3.113281 7.488281l-4.777344 4.777344 5.3125-1.320313c.851563-.214843 1.703125-.320312 2.578125-.320312zm-21.3125-85.335938c5.101563 0 9.625 3.691407 10.496094 8.917969l10.667969 64c.105468.554688.148437 1.132812.148437 1.707031 0-.554687.042969-1.128906.152344-1.707031l10.664063-64c.980468-5.800781 6.59375-9.769531 12.265624-8.765625l50.539063 8.425781c-1-2.113281-2.6875-3.839844-4.863281-4.929687l-52.203125-26.109375c-3.605469-1.816406-5.886719-5.503906-5.886719-9.539063 0-14.015625-3.734375-26.386719-10.667969-36.671875-6.933593 10.199219-10.664062 22.230469-10.664062 34.816406 0 4.03125-2.285157 9.601563-5.890625 11.414063l-52.222656 26.089844c-2.15625 1.089843-3.839844 2.816406-4.84375 4.929687l50.539062-8.425781c.578125-.109375 1.195312-.152344 1.769531-.152344zm-.019531-32h.214844zm0 0"/></svg>